HIERARCHY
ROOT Hips
{
  OFFSET -187.679 86.5976 -156.378
  CHANNELS 6 Xposition Yposition Zposition Zrotation Xrotation Yrotation
  JOINT LeftUpLeg
  {
    OFFSET 8.64259 1.95398 -2.38835
    CHANNELS 3 Zrotation Xrotation Yrotation
    JOINT LeftLeg
    {
      OFFSET 43.7702 0 0
      CHANNELS 3 Zrotation Xrotation Yrotation
      JOINT LeftFoot
      {
        OFFSET 40.6238 0 0
        CHANNELS 3 Zrotation Xrotation Yrotation
        JOINT LeftToeBase
        {
          OFFSET 12.7242 0 0
          CHANNELS 3 Zrotation Xrotation Yrotation
          End Site
          {
            OFFSET 0 0 0
          }
        }
      }
    }
  }
  JOINT RightUpLeg
  {
    OFFSET -8.2249 1.95398 -2.59336
    CHANNELS 3 Zrotation Xrotation Yrotation
    JOINT RightLeg
    {
      OFFSET 43.5653 0 0
      CHANNELS 3 Zrotation Xrotation Yrotation
      JOINT RightFoot
      {
        OFFSET 40.6238 0 0
        CHANNELS 3 Zrotation Xrotation Yrotation
        JOINT RightToeBase
        {
          OFFSET 12.7242 0 0
          CHANNELS 3 Zrotation Xrotation Yrotation
          End Site
          {
            OFFSET 0 0 0
          }
        }
      }
    }
  }
  JOINT Spine
  {
    OFFSET 0.165834 0.87714 6.61349
    CHANNELS 3 Zrotation Xrotation Yrotation
    JOINT Spine1
    {
      OFFSET 7.38963 1.71661e-005 0
      CHANNELS 3 Zrotation Xrotation Yrotation
      JOINT Spine2
      {
        OFFSET 11.9445 1.14441e-005 0
        CHANNELS 3 Zrotation Xrotation Yrotation
        JOINT Spine3
        {
          OFFSET 14.7254 4.19617e-005 0
          CHANNELS 3 Zrotation Xrotation Yrotation
          JOINT Spine4
          {
            OFFSET 10.9679 0 0
            CHANNELS 3 Zrotation Xrotation Yrotation
            JOINT RightShoulder
            {
              OFFSET 2.46616 -1.6653 3.69651
              CHANNELS 3 Zrotation Xrotation Yrotation
              JOINT RightArm
              {
                OFFSET 13.0012 0 0
                CHANNELS 3 Zrotation Xrotation Yrotation
                JOINT RightForeArm
                {
                  OFFSET 28.7848 1.52588e-005 0
                  CHANNELS 3 Zrotation Xrotation Yrotation
                  JOINT RightHand
                  {
                    OFFSET 26.5688 1.52588e-005 0
                    CHANNELS 3 Zrotation Xrotation Yrotation
                    End Site
                    {
                      OFFSET 0 0 0
                    }
                  }
                }
              }
            }
            JOINT LeftShoulder
            {
              OFFSET 2.38034 -1.29275 -3.7523
              CHANNELS 3 Zrotation Xrotation Yrotation
              JOINT LeftArm
              {
                OFFSET 16.3182 6.10352e-005 0
                CHANNELS 3 Zrotation Xrotation Yrotation
                JOINT LeftForeArm
                {
                  OFFSET 27.0901 0 0
                  CHANNELS 3 Zrotation Xrotation Yrotation
                  JOINT LeftHand
                  {
                    OFFSET 24.5451 1.52588e-005 0
                    CHANNELS 3 Zrotation Xrotation Yrotation
                    End Site
                    {
                      OFFSET 0 0 0
                    }
                  }
                }
              }
            }
            JOINT Neck
            {
              OFFSET 5.0226 -0.0266342 0
              CHANNELS 3 Zrotation Xrotation Yrotation
              JOINT Head
              {
                OFFSET 6.69363 2.86102e-005 0
                CHANNELS 3 Zrotation Xrotation Yrotation
                End Site
                {
                  OFFSET 0 0 0
                }
              }
            }
          }
        }
      }
    }
  }
}
MOTION
Frames:	15
Frame Time:	0.0416667
42.7225 103.297 -270.977 -156.264 -83.9914 -157.768 -176.058 -5.80871 86.8686 -13.1444 16.7058 8.65776 69.5748 4.28403 -1.61673 18.5023 -7.62728 7.93837 173.843 -4.66355 89.5256 -13.2861 7.99359 2.68337 66.1813 -2.38395 0.947958 24.8863 -0.795685 0.598753 0.103414 7.56339 -89.8216 11.7466 0.289498 0.325066 0.0756081 0.30352 0.312017 -22.4593 0.178414 0.397047 -2.4467 0.178417 0.397045 85.7764 -49.5834 -107.162 25.9763 -26.0613 -12.5622 -17.9916 -21.5303 -20.5092 -10.5372 -0.0728528 -4.37353 -90.0983 -46.7365 78.0749 -24.8201 25.002 -9.85769 8.0204 -3.37909 -16.5301 0.461222 -0.120606 -5.55642 8.6456 -2.26838 -3.24729 4.44494 -1.41135 1.69298 
42.6138 103.236 -270.976 -156.412 -84.1518 -157.843 -176.347 -3.97007 86.9229 -16.3399 14.8156 9.08473 71.1118 4.29975 -2.94911 15.1735 -6.94753 3.10812 174.115 -4.16964 89.8126 -13.9338 8.34917 2.52256 65.8758 -2.47674 1.48209 25.4914 -0.703046 0.615453 0.106377 7.55428 -89.7981 11.7647 0.306474 0.370105 0.0937155 0.322463 0.356253 -22.4411 0.181071 0.4451 -2.42848 0.181072 0.4451 84.724 -50.6409 -108.412 24.9526 -26.2027 -12.4624 -17.928 -21.7428 -20.2898 -10.1731 -0.0954697 -4.08137 -89.7423 -46.4279 78.5555 -25.0019 25.6781 -9.76898 8.07724 -3.77268 -16.3684 -0.447594 -0.132067 -5.45654 8.11128 -2.19531 -3.87242 5.40066 -1.2182 1.58148 
42.4647 103.239 -270.871 -153.795 -84.1735 -155.061 -176.38 -3.86924 87.0713 -16.3529 14.2905 9.23451 71.354 4.3292 -3.1126 14.2627 -6.75752 1.88717 174.437 -4.08425 90.2089 -14.0284 8.77092 2.36484 66.2554 -2.62337 1.34886 25.5285 -0.648019 0.460679 0.153444 7.54762 -89.8255 11.7781 0.387231 0.307003 0.107178 0.400368 0.289655 -22.428 0.277063 0.409188 -2.41531 0.277061 0.409188 84.8085 -50.3289 -108.386 25.1293 -26.1553 -13.2162 -16.9993 -21.4645 -18.4696 -10.1055 -0.0614474 -4.48336 -89.6816 -46.1047 78.576 -25.9232 28.5117 -9.45089 8.15666 -6.45437 -13.4013 -4.3053 -0.113345 -1.99418 8.16494 -2.22546 -3.76346 5.26754 -1.2734 1.53579 
42.3683 103.212 -270.628 -153.782 -84.4394 -155.314 -176.5 -4.04055 86.8316 -15.8363 14.4155 9.25945 71.3105 4.4013 -2.92493 14.2633 -6.72918 1.83277 174.405 -3.84355 90.0821 -14.3801 8.83481 2.2769 66.597 -2.69145 1.31448 25.3923 -0.669785 0.46064 0.145374 7.50835 -89.8297 11.8566 0.36929 0.300073 0.185693 0.382142 0.28352 -22.3494 0.262038 0.397193 -2.33678 0.26203 0.397177 85.3479 -50.0302 -107.671 25.4138 -26.2702 -13.2328 -17.1377 -21.6108 -18.7364 -9.97293 -0.0465897 -4.66028 -89.9334 -46.636 78.3065 -25.8504 27.9752 -8.97158 8.11423 -6.50154 -13.6222 -3.95326 -0.115999 -2.37736 8.23897 -2.17297 -2.83005 4.97714 -1.4751 0.734645 
42.118 103.174 -270.285 -156.013 -84.5769 -157.542 -176.272 -4.20767 87.1331 -15.8995 14.9219 9.15685 71.3843 4.46155 -2.86422 14.4006 -6.47597 1.44022 174.45 -4.04814 90.2432 -14.4586 9.15399 2.349 66.8484 -2.77095 1.47184 25.447 -0.541965 0.0862146 0.121024 7.5369 -89.7838 11.7994 0.342329 0.394637 0.128404 0.359373 0.379187 -22.4064 0.207902 0.47928 -2.39378 0.207901 0.479273 84.4615 -50.5773 -108.824 24.5882 -26.5353 -13.5767 -16.7241 -21.0328 -18.3576 -10.7931 -0.060492 -4.52594 -89.7141 -45.891 78.4766 -26.2825 27.2926 -9.11284 8.23868 -6.45059 -13.3393 -3.87454 -0.109041 -2.48638 8.07534 -2.21192 -4.13509 5.5593 -1.16126 1.82218 
41.7063 103.133 -269.897 -156.304 -84.7332 -157.955 -176.234 -4.31562 87.3098 -15.8741 14.8028 9.21075 71.7046 4.51449 -3.4136 14.4563 -6.50672 1.55279 174.42 -4.2529 90.3405 -14.3795 9.20372 2.47267 67.1138 -2.84195 1.26962 25.5469 -0.560885 0.194637 0.150675 7.52446 -89.8139 11.8243 0.387205 0.329797 0.153371 0.401341 0.312421 -22.3817 0.270184 0.430911 -2.36906 0.270188 0.43092 85.7554 -49.8667 -107.107 25.5211 -26.4367 -13.7909 -16.7349 -21.1789 -18.137 -9.59482 -0.00202198 -5.21358 -89.9281 -46.8371 78.361 -25.4642 27.3888 -9.04319 8.32526 -5.68514 -13.4094 -4.32596 -0.100734 -3.38399 8.18366 -2.26786 -2.92701 5.21828 -1.51629 1.17116 
41.1007 103.129 -269.356 -154.887 -84.7903 -156.678 -175.554 -4.62185 88.0332 -15.6212 15.5798 8.48819 71.7525 4.74847 -3.14808 14.8771 -6.64481 2.22056 174.596 -4.57939 90.5977 -14.3172 9.65166 2.38734 67.4044 -2.9824 1.53662 25.1282 -0.698598 0.418755 0.166999 7.54253 -89.7958 11.788 0.428114 0.361518 0.117091 0.443605 0.342312 -22.418 0.299667 0.473459 -2.40531 0.299674 0.473471 85.4682 -49.7269 -107.584 25.0873 -26.7236 -13.8845 -16.3583 -20.8248 -17.8149 -10.5692 -0.0877427 -4.21731 -89.8346 -47.2636 78.6025 -25.1309 26.4978 -8.60009 8.08336 -7.45524 -13.9524 -4.43366 -0.0925943 -3.77066 8.04767 -1.97684 -1.79842 5.2115 -1.53562 0.236774 
40.2968 103.029 -268.437 -158.893 -84.6095 -161.051 -174.897 -4.94393 88.685 -16.6125 16.4533 7.88557 72.3396 5.14672 -3.09755 14.9485 -6.55641 2.09909 174.565 -5.6713 90.6986 -14.0559 10.0142 2.41947 67.9786 -3.13097 1.48856 25.3666 -0.670796 0.451055 0.164635 7.59817 -89.7032 11.6762 0.466709 0.542914 0.00528163 0.490153 0.521844 -22.5293 0.281959 0.658073 -2.51663 0.281969 0.658084 85.4075 -49.8196 -107.647 25.1422 -26.6735 -13.5918 -16.9728 -21.6406 -18.7829 -10.1847 -0.0377405 -4.80333 -89.8115 -47.3257 78.6517 -24.9441 24.8634 -7.06171 7.90939 -9.39432 -15.0657 -3.90643 -0.0891474 -3.93723 7.28807 -1.8142 -1.20456 5.84081 -1.55302 -0.339997 
39.3749 102.667 -267.672 -157.122 -84.1904 -159.944 -174.566 -4.40073 89.1306 -19.163 15.7387 6.99108 73.816 5.852 -3.85223 16.5831 -6.91801 4.42111 173.39 -5.17823 89.7799 -17.031 8.20267 3.22783 69.884 -3.32806 0.995384 25.2309 -0.760443 0.662938 0.239197 7.70092 -89.6277 11.4697 0.649902 0.675425 -0.201236 0.678995 0.646161 -22.7356 0.416868 0.839507 -2.72298 0.416864 0.839498 85.215 -49.2191 -108.129 25.555 -25.6916 -11.7919 -19.7789 -23.1568 -23.0457 -9.56704 -0.264423 -1.86772 -89.8464 -48.214 78.7964 -24.1983 23.4497 -6.64181 7.97877 -9.30591 -14.8265 -4.06201 -0.0910211 -4.4825 6.75862 -1.46291 0.428307 6.13964 -1.60041 -1.13003 
38.5368 101.732 -267.254 -159.054 -84.8007 -162.321 -175.358 -0.128567 89.9697 -26.7034 14.8731 5.66247 74.9437 7.19314 -3.78292 20.6878 -6.56855 8.00187 172.665 -3.285 89.3446 -20.8128 8.43156 4.01175 72.6565 -3.5095 1.80718 26.1743 -0.967673 1.80109 0.312693 7.7388 -89.5509 11.3925 0.831819 0.810923 -0.278363 0.866698 0.773524 -22.8126 0.54966 1.02341 -2.79991 0.549656 1.0234 84.5274 -49.2446 -109.163 24.0133 -26.6614 -13.6202 -17.4302 -22.5742 -19.1895 -10.6948 -0.216755 -2.75922 -89.7784 -48.4399 78.9497 -23.723 21.836 -5.47651 8.24284 -9.32404 -15.7389 -3.69926 -0.0857333 -4.2764 6.28133 -1.38029 1.20663 7.00027 -1.68023 -1.15848 
37.7099 101.047 -266.675 -178.44 -84.8453 178.633 -176.163 8.21478 89.5804 -41.4259 15.127 6.63847 73.4768 6.15004 -4.00336 21.331 -5.59169 6.5055 172.398 -3.72602 89.8208 -22.0938 9.27317 4.96662 74.3626 -3.53159 1.335 25.9797 -1.23632 2.54034 0.297679 7.90684 -89.6878 11.0593 0.737306 0.547731 -0.611546 0.760699 0.514749 -23.147 0.538598 0.743997 -3.13436 0.5386 0.743996 85.5347 -47.7255 -108.124 23.6977 -27.1712 -14.7663 -17.1201 -21.2734 -19.19 -11.2348 -0.156243 -3.50646 -89.5206 -49.8173 79.6335 -23.3645 19.9997 -4.71873 8.41033 -9.80472 -16.6196 -3.65742 -0.0879903 -4.21094 6.87788 -0.991012 3.11951 6.71239 -1.74931 -2.00972 
37.0918 100.989 -265.596 -178.598 -85.441 178.224 -175.992 15.2658 89.7592 -47.2481 14.0279 5.34154 75.1477 5.91761 -6.22432 16.839 -7.74632 6.39191 172.804 -3.55291 90.3214 -22.4427 9.19879 4.61988 73.4928 -3.02392 1.38316 28.2008 -0.268102 0.616684 0.618576 7.96 -89.5954 10.9514 1.41884 0.669288 -0.718991 1.44692 0.606181 -23.257 1.1521 1.06479 -3.24437 1.15211 1.06478 84.4222 -49.2649 -109.316 21.8562 -27.1989 -15.2875 -16.8925 -20.0473 -18.985 -9.89582 -0.0595046 -4.55831 -89.4972 -48.0887 79.2972 -25.4241 18.0495 -2.35081 8.81604 -9.04651 -18.7318 -3.49603 -0.0941709 -3.40251 5.30829 -1.79773 0.109902 8.30192 -1.85335 -0.742128 
37.0312 101.177 -263.403 -177.405 -85.323 177.509 -176.358 17.6356 86.3942 -38.9461 16.4913 3.61887 70.9829 4.94011 -3.08426 20.5667 -6.34061 7.35634 172.204 -5.66266 88.6202 -20.6908 9.13821 3.83471 74.2266 -3.6956 0.852263 27.8562 -0.602483 1.56256 0.713576 8.10158 -89.3432 10.6613 1.7235 1.14864 -1.009 1.77238 1.07166 -23.5459 1.29864 1.61351 -3.53322 1.29864 1.61351 83.7269 -49.6932 -110.219 20.692 -28.0139 -16.9761 -17.1619 -18.7631 -19.9775 -8.96553 -0.00867322 -5.15238 -89.4439 -47.7269 79.3041 -26.2501 18.3529 0.769471 8.58311 -9.23142 -19.5608 -4.32884 -0.113525 -2.61915 5.44299 -2.05953 -0.459416 7.70881 -1.97689 -0.549753 
37.2361 101.037 -260.552 179.886 -86.1911 174.268 -178.442 19.3857 84.2409 -25.4003 14.6593 3.55718 67.5839 4.2137 -0.671656 17.5279 -6.52794 4.53146 172.057 -7.8226 87.9476 -18.1562 10.6981 3.53297 74.4522 -3.9535 2.07323 28.6401 -0.517833 1.72635 0.836418 8.0845 -89.2619 10.6926 2.00573 1.28401 -0.977303 2.0603 1.19447 -23.5154 1.52716 1.82744 -3.50272 1.52716 1.82744 83.5593 -49.8791 -110.407 19.811 -27.9331 -18.0721 -18.4518 -18.0799 -22.56 -9.26333 0.0471117 -5.89354 -89.4471 -47.3424 79.2155 -27.515 18.7438 2.07733 8.41226 -9.25419 -16.5323 -4.36458 -0.106448 -3.06791 5.35618 -2.32341 -0.702323 8.13224 -2.19229 -0.552926 
37.3447 100.326 -256.291 -178.709 -86.2163 175.935 -179.697 20.5038 82.9196 -17.0465 12.1366 4.40147 67.1852 3.75301 -0.586169 16.0873 -6.92956 3.95767 172.041 -12.198 88.1797 -14.8386 10.5554 3.23616 74.8277 -4.70321 0.952625 30.84 -0.254158 2.14192 0.923068 8.10674 -89.3297 10.6493 2.14688 1.13738 -1.02032 2.19486 1.04175 -23.5612 1.70583 1.73007 -3.54859 1.70583 1.73006 83.4051 -49.5065 -110.768 18.549 -28.2671 -19.7572 -18.2614 -19.3072 -22.0027 -10.0616 -0.038782 -4.73057 -89.9094 -48.3268 78.7257 -28.3897 18.0442 4.2787 8.03247 -10.5249 -16.2165 -3.29255 -0.101212 -2.6421 5.48689 -2.36267 0.129722 7.82699 -2.44144 -1.18372 
